<svg xmlns="http://www.w3.org/2000/svg" viewBox="0 0 1269.82 2107.12"><style>text{font-family:sans-serif;fill:#222}.stock{fill:#e3e3e3;stroke:#555}.part{fill:#f2d7a6;stroke:#8a5a2b}.remnant{fill:#d5eed5;stroke:#3c8c3c;stroke-dasharray:4 3}.cut{stroke:#d33}.stock,.part,.remnant,.cut{stroke-width:1px;vector-effect:non-scaling-stroke}.label{text-anchor:middle;dominant-baseline:central}.remnant-label{fill:#2e6b2e}.title{font-weight:bold}</style><rect width="100%" height="100%" fill="#fff"/><text class="title" x="40.44" y="80.88" font-size="40.44">2D · yield 77.9% · stocks 1 · parts 7/7</text><text class="title" x="40.44" y="161.76" font-size="40.44">#1 plywood-3x6 910×1820 · parts 7 · yield 77.9%</text><g transform="translate(40.44 186.02)"><rect class="stock" width="910" height="1820"/><rect class="remnant" x="606" y="1006" width="304" height="814"><title>remnant 304×814</title></rect><text class="label remnant-label" font-size="40.44"><tspan x="758" y="1413">304×814</tspan></text><rect class="remnant" x="303" y="1509" width="300" height="311"><title>remnant 300×311</title></rect><text class="label remnant-label" font-size="40.44"><tspan x="453" y="1664.5">300×311</tspan></text><rect class="part" x="0" y="0" width="300" height="900"><title>Side Panels (side-panels) 300×900 ↻</title></rect><text class="label" font-size="40.44"><tspan x="150" y="425.74">Side Panels</tspan><tspan x="150" y="474.26">300×900 ↻</tspan></text><rect class="part" x="0" y="903" width="300" height="900"><title>Side Panels (side-panels) 300×900 ↻</title></rect><text class="label" font-size="40.44"><tspan x="150" y="1328.74">Side Panels</tspan><tspan x="150" y="1377.26">300×900 ↻</tspan></text><rect class="part" x="303" y="0" width="300" height="500"><title>Top and Bottom Panels (top-bottom) 300×500 ↻</title></rect><text class="label" font-size="21.43"><tspan x="453" y="237.14">Top and Bottom Panels</tspan><tspan x="453" y="262.86">300×500 ↻</tspan></text><rect class="part" x="606" y="0" width="300" height="500"><title>Top and Bottom Panels (top-bottom) 300×500 ↻</title></rect><text class="label" font-size="21.43"><tspan x="756" y="237.14">Top and Bottom Panels</tspan><tspan x="756" y="262.86">300×500 ↻</tspan></text><rect class="part" x="303" y="503" width="300" height="500"><title>Shelves (shelves) 300×500 ↻</title></rect><text class="label" font-size="40.44"><tspan x="453" y="728.74">Shelves</tspan><tspan x="453" y="777.26">300×500 ↻</tspan></text><rect class="part" x="606" y="503" width="300" height="500"><title>Shelves (shelves) 300×500 ↻</title></rect><text class="label" font-size="40.44"><tspan x="756" y="728.74">Shelves</tspan><tspan x="756" y="777.26">300×500 ↻</tspan></text><rect class="part" x="303" y="1006" width="300" height="500"><title>Shelves (shelves) 300×500 ↻</title></rect><text class="label" font-size="40.44"><tspan x="453" y="1231.74">Shelves</tspan><tspan x="453" y="1280.26">300×500 ↻</tspan></text><line class="cut" x1="301.5" y1="0" x2="301.5" y2="1820"><title>cut 1</title></line><line class="cut" x1="0" y1="901.5" x2="300" y2="901.5"><title>cut 2</title></line><line class="cut" x1="0" y1="1804.5" x2="300" y2="1804.5"><title>cut 3</title></line><line class="cut" x1="303" y1="501.5" x2="910" y2="501.5"><title>cut 4</title></line><line class="cut" x1="604.5" y1="0" x2="604.5" y2="500"><title>cut 5</title></line><line class="cut" x1="907.5" y1="0" x2="907.5" y2="500"><title>cut 6</title></line><line class="cut" x1="303" y1="1004.5" x2="910" y2="1004.5"><title>cut 7</title></line><line class="cut" x1="604.5" y1="503" x2="604.5" y2="1003"><title>cut 8</title></line><line class="cut" x1="907.5" y1="503" x2="907.5" y2="1003"><title>cut 9</title></line><line class="cut" x1="604.5" y1="1006" x2="604.5" y2="1820"><title>cut 10</title></line><line class="cut" x1="303" y1="1507.5" x2="603" y2="1507.5"><title>cut 11</title></line></g></svg>
