<svg xmlns="http://www.w3.org/2000/svg" viewBox="0 0 2088.88 1057.67"><style>text{font-family:sans-serif;fill:#222}.stock{fill:#e3e3e3;stroke:#555}.part{fill:#f2d7a6;stroke:#8a5a2b}.remnant{fill:#d5eed5;stroke:#3c8c3c;stroke-dasharray:4 3}.cut{stroke:#d33}.stock,.part,.remnant,.cut{stroke-width:1px;vector-effect:non-scaling-stroke}.label{text-anchor:middle;dominant-baseline:central}.remnant-label{fill:#2e6b2e}.title{font-weight:bold}</style><rect width="100%" height="100%" fill="#fff"/><text class="title" x="44.44" y="88.88" font-size="44.44">1D · yield 83.3% · stocks 3 · parts 9/9</text><text class="title" x="44.44" y="177.76" font-size="44.44">#1 stock-2m 2000 · parts 2 · yield 80%</text><g transform="translate(44.44 204.42)"><rect class="stock" width="2000" height="155.54"/><rect class="remnant" x="1606" width="394" height="155.54"><title>remnant 394</title></rect><text class="label remnant-label" font-size="44.44"><tspan x="1803" y="77.77">394</tspan></text><rect class="part" x="0" width="800" height="155.54"><title>Leg (p-800) 800</title></rect><text class="label" font-size="44.44"><tspan x="400" y="51.11">Leg</tspan><tspan x="400" y="104.43">800</tspan></text><rect class="part" x="803" width="800" height="155.54"><title>Leg (p-800) 800</title></rect><text class="label" font-size="44.44"><tspan x="1203" y="51.11">Leg</tspan><tspan x="1203" y="104.43">800</tspan></text><line class="cut" x1="801.5" y1="0" x2="801.5" y2="155.54"><title>cut 1</title></line><line class="cut" x1="1604.5" y1="0" x2="1604.5" y2="155.54"><title>cut 2</title></line></g><text class="title" x="44.44" y="471.06" font-size="44.44">#2 stock-2m 2000 · parts 3 · yield 90%</text><g transform="translate(44.44 497.73)"><rect class="stock" width="2000" height="155.54"/><rect class="part" x="0" width="800" height="155.54"><title>Leg (p-800) 800</title></rect><text class="label" font-size="44.44"><tspan x="400" y="51.11">Leg</tspan><tspan x="400" y="104.43">800</tspan></text><rect class="part" x="803" width="500" height="155.54"><title>Brace (p-500) 500</title></rect><text class="label" font-size="44.44"><tspan x="1053" y="51.11">Brace</tspan><tspan x="1053" y="104.43">500</tspan></text><rect class="part" x="1306" width="500" height="155.54"><title>Brace (p-500) 500</title></rect><text class="label" font-size="44.44"><tspan x="1556" y="51.11">Brace</tspan><tspan x="1556" y="104.43">500</tspan></text><line class="cut" x1="801.5" y1="0" x2="801.5" y2="155.54"><title>cut 1</title></line><line class="cut" x1="1304.5" y1="0" x2="1304.5" y2="155.54"><title>cut 2</title></line><line class="cut" x1="1807.5" y1="0" x2="1807.5" y2="155.54"><title>cut 3</title></line></g><text class="title" x="44.44" y="764.37" font-size="44.44">#3 stock-2m 2000 · parts 4 · yield 80%</text><g transform="translate(44.44 791.03)"><rect class="stock" width="2000" height="155.54"/><rect class="remnant" x="1612" width="388" height="155.54"><title>remnant 388</title></rect><text class="label remnant-label" font-size="44.44"><tspan x="1806" y="77.77">388</tspan></text><rect class="part" x="0" width="500" height="155.54"><title>Brace (p-500) 500</title></rect><text class="label" font-size="44.44"><tspan x="250" y="51.11">Brace</tspan><tspan x="250" y="104.43">500</tspan></text><rect class="part" x="503" width="500" height="155.54"><title>Brace (p-500) 500</title></rect><text class="label" font-size="44.44"><tspan x="753" y="51.11">Brace</tspan><tspan x="753" y="104.43">500</tspan></text><rect class="part" x="1006" width="300" height="155.54"><title>Support (p-300) 300</title></rect><text class="label" font-size="44.44"><tspan x="1156" y="51.11">Support</tspan><tspan x="1156" y="104.43">300</tspan></text><rect class="part" x="1309" width="300" height="155.54"><title>Support (p-300) 300</title></rect><text class="label" font-size="44.44"><tspan x="1459" y="51.11">Support</tspan><tspan x="1459" y="104.43">300</tspan></text><line class="cut" x1="501.5" y1="0" x2="501.5" y2="155.54"><title>cut 1</title></line><line class="cut" x1="1004.5" y1="0" x2="1004.5" y2="155.54"><title>cut 2</title></line><line class="cut" x1="1307.5" y1="0" x2="1307.5" y2="155.54"><title>cut 3</title></line><line class="cut" x1="1610.5" y1="0" x2="1610.5" y2="155.54"><title>cut 4</title></line></g></svg>
